<svg xmlns="http://www.w3.org/2000/svg" width="34.97" height="25" viewBox="0 0 34.97 25">
  <defs>
    <style>
      .cls-1 {
        fill: #ccc;
        fill-rule: evenodd;
      }
    </style>
  </defs>
  <path id="hide_icon.svg" class="cls-1" d="M1193.17,249c-1.32-.975-2.64-1.9-3.91-2.893a28.2,28.2,0,0,1-3.87-3.794,1.1,1.1,0,0,1-.02-1.6,29.419,29.419,0,0,1,10.29-7.9,16.244,16.244,0,0,1,7.18-1.524,16.7,16.7,0,0,1,6.5,1.522,0.422,0.422,0,0,0,.56-0.1q1.71-1.694,3.44-3.365a1.171,1.171,0,0,1,1.64-.013,1.106,1.106,0,0,1,.02,1.6c-0.03.035-.07,0.068-0.1,0.1q-11.565,11.281-23.14,22.563a1.2,1.2,0,0,1-1.72.091,1.131,1.131,0,0,1,.08-1.7c0.94-.922,1.89-1.84,2.83-2.761C1193.03,249.136,1193.11,249.05,1193.17,249Zm4.48-4.514c2.64-2.578,5.3-5.164,7.94-7.744a5.779,5.779,0,0,0-7.31.866A5.379,5.379,0,0,0,1197.65,244.482Zm0.06,6.444c0.37-.33.69-0.6,0.99-0.889,0.93-.907,1.86-1.825,2.81-2.728a0.615,0.615,0,0,1,.42-0.181,5.78,5.78,0,0,0,6.2-4.143,4.833,4.833,0,0,0,.17-2.036,0.436,0.436,0,0,1,.09-0.348,6.774,6.774,0,0,1,.58-0.582c1.59-1.558,3.19-3.115,4.81-4.7,0.5,0.382,1,.743,1.47,1.122a30.7,30.7,0,0,1,4.41,4.267,1.072,1.072,0,0,1,.07,1.493,28.341,28.341,0,0,1-11.53,8.45A15.322,15.322,0,0,1,1197.71,250.926Z" transform="translate(-1185.03 -229)"/>
</svg>
