<svg xmlns="http://www.w3.org/2000/svg" width="169" height="169" viewBox="0 0 169 169">
  <defs>
    <style>
      .cls-1 {
        fill: #ccc;
        fill-rule: evenodd;
      }
    </style>
  </defs>
  <path id="security_icon.svg" class="cls-1" d="M740,203v84.5h4.369V207.369H904.623V367.623H824.962v4.369h84.029V203H740Zm127.9,69.729c0,4.376-.072,8.753.015,13.127,0.19,9.588-2.882,18.1-8.368,25.829a79.226,79.226,0,0,1-20.157,19.322c-3.9,2.678-8.052,4.993-12.124,7.414a5.13,5.13,0,0,1-5.3.034c-11.135-5.959-21.167-13.347-29.384-23.015-5.051-5.943-8.907-12.577-10.557-20.282a40.854,40.854,0,0,1-.894-8.1c-0.1-10.568-.042-21.138-0.039-31.708a5.4,5.4,0,0,1,3.974-5.645q18.573-6.732,37.146-13.467a6.346,6.346,0,0,1,4.521-.009q18.622,6.748,37.256,13.461a5.284,5.284,0,0,1,3.91,5.571Q867.907,263.995,867.9,272.729Zm-43.393,14.716v42.914a10.446,10.446,0,0,0,1.557-.568c9.64-5.54,18.492-12.058,25.438-20.868a38.078,38.078,0,0,0,7.372-14.224,28.126,28.126,0,0,0,.916-7.223H824.474q0.008-21.4.013-42.8a2.85,2.85,0,0,0-.086-0.454c-0.59.172-1.144,0.3-1.675,0.492q-15.387,5.593-30.77,11.2c-2.07.753-2.535,1.4-2.536,3.561q0,13.425,0,26.85c0,0.356.031,0.713,0.051,1.117h35.032Z" transform="translate(-740 -203)"/>
</svg>
