<svg xmlns="http://www.w3.org/2000/svg" width="34.88" height="20.656" viewBox="0 0 34.88 20.656">
  <defs>
    <style>
      .cls-1 {
        fill: #ccc;
        fill-rule: evenodd;
      }
    </style>
  </defs>
  <path id="show_icon.svg" class="cls-1" d="M1202.24,231.152c7.61,0.314,13.38,3.4,17.35,9.582a1.278,1.278,0,0,1,.01,1.522,19.722,19.722,0,0,1-14.25,9.332,20.084,20.084,0,0,1-20.14-9.405,1.249,1.249,0,0,1,.03-1.43,19.828,19.828,0,0,1,13.69-9.232C1200.08,231.306,1201.26,231.257,1202.24,231.152Zm0.17,3.264a7.1,7.1,0,1,0,7.28,7.1A7.18,7.18,0,0,0,1202.41,234.416Zm0.01,11.919a4.825,4.825,0,1,1,4.95-4.823A4.893,4.893,0,0,1,1202.42,246.335Z" transform="translate(-1185 -231.156)"/>
</svg>
