<svg xmlns="http://www.w3.org/2000/svg" width="95.25" height="95.25" viewBox="0 0 95.25 95.25">
  <defs>
    <style>
      .cls-1 {
        fill: #ccc;
        fill-rule: evenodd;
      }
    </style>
  </defs>
  <path id="upload_icon_.svg" class="cls-1" d="M635.371,298.372V346h2.462V300.834H728.16v90.327h-44.9v2.462h47.362V298.372H635.371Zm34.7,38.541c1.8-.007,3.6,0,5.493,0v0.739q0,8.033,0,16.065a3.189,3.189,0,0,0,3.5,3.5q3.961,0.007,7.921,0a4.6,4.6,0,0,0,1.051-.088,3.165,3.165,0,0,0,2.445-3.352q0.007-8.088,0-16.176v-0.684h0.694c1.617,0,3.235,0,4.853,0a2.4,2.4,0,0,0,1.635-4.293q-6.329-6.333-12.659-12.663c-1.347-1.346-2.617-1.347-3.963,0q-6.291,6.291-12.579,12.585a5.732,5.732,0,0,0-.583.672,2.324,2.324,0,0,0,.3,3.041A2.583,2.583,0,0,0,670.067,336.913Zm41.517,9.623a5.7,5.7,0,0,0-.02-0.613,2.823,2.823,0,0,0-4.3-2.138,2.868,2.868,0,0,0-1.368,2.64q0,5.664,0,11.326a7.451,7.451,0,0,1-.058,1.168,6.456,6.456,0,0,1-6.7,5.612q-16.124.007-32.248,0a7.862,7.862,0,0,1-1.607-.149,6.394,6.394,0,0,1-5.145-6.294c-0.024-3.813-.006-7.625-0.007-11.438,0-.223,0-0.447-0.019-0.668a2.849,2.849,0,0,0-2.884-2.621,2.784,2.784,0,0,0-2.763,2.736c-0.03,4.24-.16,8.488.053,12.718,0.234,4.659,2.665,8.055,6.818,10.184A12.2,12.2,0,0,0,667,370.212h16.013q8.005,0,16.012,0a12.151,12.151,0,0,0,6.406-1.609,11.971,11.971,0,0,0,6.144-10.8C711.609,354.05,711.586,350.293,711.584,346.536Z" transform="translate(-635.375 -298.375)"/>
</svg>
