<svg xmlns="http://www.w3.org/2000/svg" width="169" height="169" viewBox="0 0 169 169">
  <defs>
    <style>
      .cls-1 {
        fill: #ccc;
        fill-rule: evenodd;
      }
    </style>
  </defs>
  <path id="url_error_icon.svg" class="cls-1" d="M599,223v84.5h4.369V227.369H763.623V387.623H683.962v4.369h84.029V223H599Zm127.1,54.438,7.79-7.79a3.82,3.82,0,0,0,0-5.4h0a3.82,3.82,0,0,0-5.4,0l-7.79,7.79a1.236,1.236,0,0,1-1.747,0l-7.79-7.79a3.82,3.82,0,0,0-5.4,0h0a3.82,3.82,0,0,0,0,5.4l7.79,7.79a1.236,1.236,0,0,1,0,1.747l-7.79,7.79a3.819,3.819,0,0,0,0,5.4h0a3.819,3.819,0,0,0,5.4,0l7.79-7.79a1.236,1.236,0,0,1,1.747,0l7.79,7.79a3.819,3.819,0,0,0,5.4,0h0a3.819,3.819,0,0,0,0-5.4l-7.79-7.79A1.236,1.236,0,0,1,726.1,277.438Zm-72.66,0,7.79-7.79a3.82,3.82,0,0,0,0-5.4h0a3.82,3.82,0,0,0-5.4,0l-7.79,7.79a1.236,1.236,0,0,1-1.747,0l-7.79-7.79a3.82,3.82,0,0,0-5.4,0h0a3.821,3.821,0,0,0,0,5.4l7.79,7.79a1.234,1.234,0,0,1,0,1.747l-7.789,7.79a3.82,3.82,0,0,0,0,5.4h0a3.82,3.82,0,0,0,5.4,0l7.79-7.79a1.236,1.236,0,0,1,1.747,0l7.79,7.79a3.819,3.819,0,0,0,5.4,0h0a3.819,3.819,0,0,0,0-5.4l-7.79-7.79A1.236,1.236,0,0,1,653.442,277.438Zm38.531,39.9c2.729,6.811,5.283,10.806,5.782,29.913,0.5,10.517,30.718,3.444,25.654-25.023C723.409,322.224,712.406,317.508,691.973,317.334Zm42.087,6.68c-38.6-17.814-81.912-6.68-98.855,15.98-2.338,4.322,2.188,8.23,4.712,5.239,31.643-37.068,81.2-25.833,93.283-18.993C734.425,326.928,735.687,325.193,734.06,324.014Z" transform="translate(-599 -223)"/>
</svg>
